# xmcd
#
# Track frame offsets: 
#        150
#        10166
#        22051
#        34658
#        45765
#        57986
#        69538
#        83196
#        96117
#        107074
#        119794
#        131306
#        142546
#        153398
#        164394
#        184690
#        197490
#        210030
#        222949
#        233880
#        246369
#        259730
#        272509
#        286433
#        299423
#        312309
#        320708
#
# Disc length: 4446 seconds
#
# Revision: 2
# Processed by: cddbd v1.5.2PL0 Copyright (c) Steve Scherf et al.
# Submitted via: ExactAudioCopy v1.0b1
#
DISCID=80115c1b
DTITLE=Various Artist - New York Blues 1945-1956 - Rub A Little Boogie - Disc
DTITLE=D
DYEAR=2008
DGENRE=Blues
TTITLE0=Carolina Slim - Mama's Boogie
TTITLE1=Carolina Slim - Come Back Baby
TTITLE2=Carolina Slim - Black Chariot Blues
TTITLE3=Carolina Slim - Pleading Blues
TTITLE4=Carolina Slim - Jiving Woman
TTITLE5=Carolina Slim - I'll Get By Somehow
TTITLE6=Carolina Slim - Blues Knocking At My Door
TTITLE7=Carolina Slim - Worry You Off My Mind
TTITLE8=Carolina Slim - Blues Go Away From Me
TTITLE9=Carolina Slim - Shake Boogie
TTITLE10=Carolina Slim - Worrying Blues
TTITLE11=Carolina Slim - Slo-Freight Train
TTITLE12=Carolina Slim - Rag Mama
TTITLE13=Carolina Slim - Sugaree
TTITLE14=Carolina Slim - Carolina Boogie
TTITLE15=Carolina Slim - Since I Seen Your Smiling Face
TTITLE16=Carolina Slim - Your Picture Done Faded
TTITLE17=Carolina Slim - Ain't It Sad
TTITLE18=Carolina Slim - One More Time
TTITLE19=Carolina Slim - Mother Dear Mother
TTITLE20=Carolina Slim - Side Walk Boogie
TTITLE21=Carolina Slim - I'll Never Walk In Your Door
TTITLE22=Carolina Slim - Black Cat Trail
TTITLE23=Carolina Slim - Georgia Woman
TTITLE24=Carolina Slim - Money Blues
TTITLE25=Carolina Slim - Wine Head Baby
TTITLE26=Carolina Slim - (Pour Me) One More Drink
EXTD=
EXTT0=
EXTT1=
EXTT2=
EXTT3=
EXTT4=
EXTT5=
EXTT6=
EXTT7=
EXTT8=
EXTT9=
EXTT10=
EXTT11=
EXTT12=
EXTT13=
EXTT14=
EXTT15=
EXTT16=
EXTT17=
EXTT18=
EXTT19=
EXTT20=
EXTT21=
EXTT22=
EXTT23=
EXTT24=
EXTT25=
EXTT26=
PLAYORDER=
